<svg preserveAspectRatio="none" overflow="visible" style="display: block;" width="16" height="16" viewBox="0 0 16 16" fill="none" xmlns="http://www.w3.org/2000/svg">
<g id="edit">
<path id="Vector" fill-rule="evenodd" clip-rule="evenodd" d="M10.0335 1.49997C10.1661 1.49997 10.2933 1.55265 10.3871 1.64642L13.6869 4.94625C13.7807 5.04002 13.8333 5.1672 13.8333 5.2998C13.8333 5.43241 13.7807 5.55959 13.6869 5.65336L8.06353 11.2767C7.84474 11.4955 7.548 11.6184 7.23858 11.6184L4.21489 11.6184C3.93875 11.6184 3.71489 11.3946 3.71489 11.1184L3.71489 8.09473C3.71489 7.78531 3.8378 7.48856 4.0566 7.26977L9.67995 1.64642C9.77372 1.55265 9.90089 1.49997 10.0335 1.49997ZM8.85499 3.88559L11.4477 6.47832L12.6262 5.2998L10.0335 2.70708L8.85499 3.88559ZM10.7406 7.18542L8.14788 4.5927L4.7637 7.97688C4.73245 8.00813 4.71489 8.05053 4.71489 8.09473L4.71489 10.6184L7.23858 10.6184C7.28278 10.6184 7.32517 10.6009 7.35643 10.5696L10.7406 7.18542ZM1.5 14C1.5 13.7239 1.72386 13.5 2 13.5H14C14.2761 13.5 14.5 13.7239 14.5 14C14.5 14.2761 14.2761 14.5 14 14.5H2C1.72386 14.5 1.5 14.2761 1.5 14Z" fill="#F4F4F4"/>
</g>
</svg>
