<svg preserveAspectRatio="none" overflow="visible" style="display: block;" width="16" height="16" viewBox="0 0 16 16" fill="none" xmlns="http://www.w3.org/2000/svg">
<g id="page">
<path id="Vector" fill-rule="evenodd" clip-rule="evenodd" d="M3.16667 1.83333V14.1667H12.8333V4.5H11.0667C10.5696 4.5 10.1667 4.09706 10.1667 3.6V1.83333H3.16667ZM3.06667 0.833333C2.56961 0.833333 2.16667 1.23628 2.16667 1.73333V14.2667C2.16667 14.7637 2.56961 15.1667 3.06667 15.1667H12.9333C13.4304 15.1667 13.8333 14.7637 13.8333 14.2667V3.83235C13.8333 3.59366 13.7385 3.36474 13.5697 3.19596L11.4707 1.09694C11.3019 0.928154 11.073 0.833333 10.8343 0.833333H3.06667ZM11.1667 2.20711L12.4596 3.5H11.1667V2.20711ZM4.83333 6.66667C4.83333 6.39052 5.05719 6.16667 5.33333 6.16667L10.6667 6.16667C10.9428 6.16667 11.1667 6.39052 11.1667 6.66667C11.1667 6.94281 10.9428 7.16667 10.6667 7.16667L5.33333 7.16667C5.05719 7.16667 4.83333 6.94281 4.83333 6.66667ZM4.83333 9.33333C4.83333 9.05719 5.05719 8.83333 5.33333 8.83333H8C8.27614 8.83333 8.5 9.05719 8.5 9.33333C8.5 9.60947 8.27614 9.83333 8 9.83333H5.33333C5.05719 9.83333 4.83333 9.60947 4.83333 9.33333ZM4.83333 12C4.83333 11.7239 5.05719 11.5 5.33333 11.5H10.6667C10.9428 11.5 11.1667 11.7239 11.1667 12C11.1667 12.2761 10.9428 12.5 10.6667 12.5H5.33333C5.05719 12.5 4.83333 12.2761 4.83333 12Z" fill="#F4F4F4"/>
</g>
</svg>
