<svg preserveAspectRatio="none" overflow="visible" style="display: block;" width="16" height="16" viewBox="0 0 16 16" fill="none" xmlns="http://www.w3.org/2000/svg">
<g id="map-xmark">
<path id="Vector" fill-rule="evenodd" clip-rule="evenodd" d="M5.84189 1.52566C5.94452 1.49145 6.05548 1.49145 6.15811 1.52566L9.88461 2.76782C9.92057 2.77981 9.95538 2.79392 9.98893 2.80998L13.3154 1.70116C13.8982 1.5069 14.5 1.94067 14.5 2.55497V10C14.5 10.2761 14.2761 10.5 14 10.5C13.7239 10.5 13.5 10.2761 13.5 10V2.69371L10.5 3.69371V13.445C10.5 14.0593 9.89817 14.4931 9.3154 14.2988L9.47351 13.8245L9.31539 14.2988L6 13.1937L2.68461 14.2988L2.52649 13.8245L2.52251 13.8125M2.52649 13.8245L2.6846 14.2988C2.10183 14.4931 1.5 14.0593 1.5 13.445L1.5 3.62164C1.5 3.23425 1.74789 2.89032 2.11539 2.76782L5.84189 1.52566M6.5 12.3063L9.5 13.3063V3.69371L6.5 2.69371V12.3063ZM5.5 2.69371L2.5 3.69371V13.3063L5.5 12.3063V2.69371ZM11.0607 11.7273C11.2559 11.5321 11.5725 11.5321 11.7678 11.7273L12.8284 12.788L13.8891 11.7273C14.0844 11.5321 14.4009 11.5321 14.5962 11.7273C14.7915 11.9226 14.7915 12.2392 14.5962 12.4344L13.5355 13.4951L14.5962 14.5558C14.7915 14.751 14.7915 15.0676 14.5962 15.2629C14.4009 15.4581 14.0844 15.4581 13.8891 15.2629L12.8284 14.2022L11.7678 15.2629C11.5725 15.4581 11.2559 15.4581 11.0607 15.2629C10.8654 15.0676 10.8654 14.751 11.0607 14.5558L12.1213 13.4951L11.0607 12.4344C10.8654 12.2392 10.8654 11.9226 11.0607 11.7273Z" fill="#F4F4F4"/>
</g>
</svg>
